<?xml version="1.0" encoding="UTF-8" standalone="no"?>
<!-- Created with Inkscape (http://www.inkscape.org/) -->

<svg
   width="210mm"
   height="297mm"
   viewBox="0 0 210 297"
   version="1.1"
   id="svg5"
   xmlns="http://www.w3.org/2000/svg"
   xmlns:svg="http://www.w3.org/2000/svg">
  <defs
     id="defs2" />
  <g
     id="layer1">
    <path
       d="m 45.915657,126.73118 -5.6642,7.62 h 5.7912 v 2.4384 h -9.5758 v -2.1336 l 5.6642,-7.5438 h -5.334 v -2.4384 h 9.1186 z"
       id="path4785"
       style="font-weight:bold;font-size:25.4px;font-family:'Mukta Mahee';-inkscape-font-specification:'Mukta Mahee, Bold';text-align:center;text-anchor:middle;fill:#003262;fill-opacity:1;stroke-width:0.264583" />
    <path
       id="path4787"
       style="font-weight:bold;font-size:25.4px;font-family:'Mukta Mahee';-inkscape-font-specification:'Mukta Mahee, Bold';text-align:center;text-anchor:middle;fill:#003262;fill-opacity:1;stroke-width:0.264583"
       d="m 46.194086,118.65374 v 5.01985 h 0.721403 v 3.38687 l -0.721403,0.97048 v 5.32061 h 0.848527 v 3.43803 h 2.504756 v -4.06383 l 0.990121,-0.99064 3.403926,5.05447 h 3.987871 l -4.902544,-7.01042 4.673617,-5.10563 h -4.089156 l -4.063835,4.75009 v -10.76988 z" />
    <path
       d="m 64.380721,128.15358 v 2.5654 h -5.588 v -2.5654 z"
       id="path4789"
       style="font-weight:bold;font-size:25.4px;font-family:'Mukta Mahee';-inkscape-font-specification:'Mukta Mahee, Bold';text-align:center;text-anchor:middle;fill:#003262;fill-opacity:1;stroke-width:0.264583" />
    <path
       id="path4791"
       style="font-weight:bold;font-size:25.4px;font-family:'Mukta Mahee';-inkscape-font-specification:'Mukta Mahee, Bold';text-align:center;text-anchor:middle;fill:#003262;fill-opacity:1;stroke-width:0.264583"
       d="m 74.515353,120.50841 c -1.269999,0 -2.421638,0.19447 -3.45457,0.58394 -1.032932,0.38947 -1.913566,0.94825 -2.641699,1.67638 -0.711199,0.7112 -1.269984,1.57506 -1.676384,2.59106 -0.389466,1.016 -0.583943,2.15034 -0.583943,3.40341 0,1.28693 0.203382,2.44696 0.609782,3.47989 0.406399,1.016 0.973572,1.88773 1.701705,2.61586 0.745066,0.7112 1.6257,1.2616 2.641699,1.65106 1.015999,0.37254 2.124663,0.55914 3.326929,0.55914 1.066798,0 1.973114,-0.0933 2.71818,-0.27957 0.623013,-0.15575 1.125837,-0.32962 1.512052,-0.5209 -0.07084,-0.0661 -0.141014,-0.13326 -0.209806,-0.20205 l -0.0078,-0.006 -0.0057,-0.008 c -0.56333,-0.57707 -1.040113,-1.22676 -1.436605,-1.94252 -0.07626,0.0221 -0.154037,0.0432 -0.233577,0.0631 -0.541866,0.13546 -1.201825,0.2036 -1.980758,0.2036 -0.694266,0 -1.346353,-0.11008 -1.955953,-0.33021 -0.592666,-0.23707 -1.117898,-0.5846 -1.575097,-1.0418 -0.440267,-0.4572 -0.787281,-1.03276 -1.041281,-1.72702 -0.253999,-0.7112 -0.380855,-1.54938 -0.380855,-2.51458 0,-0.99907 0.126856,-1.84563 0.380855,-2.5399 0.270933,-0.7112 0.635241,-1.28727 1.09244,-1.72754 0.4572,-0.4572 0.990303,-0.78744 1.599903,-0.99064 0.609599,-0.2032 1.261687,-0.30437 1.955952,-0.30437 0.6604,0 1.253254,0.0844 1.778187,0.25373 0.133319,0.0375 0.263504,0.0778 0.390673,0.12041 0.401088,-0.72181 0.888033,-1.37609 1.46451,-1.95389 0.07811,-0.0798 0.157826,-0.15685 0.238229,-0.23306 -0.415681,-0.20463 -0.93536,-0.39666 -1.560112,-0.57516 -0.694266,-0.2032 -1.583288,-0.30437 -2.66702,-0.30437 z" />
    <path
       d="m 85.331408,120.50818 q 1.7018,0 3.1496,0.5588 1.4478,0.5588 2.4892,1.6256 1.0414,1.0414 1.6256,2.5908 0.6096,1.5494 0.6096,3.5306 0,1.9304 -0.6096,3.4544 -0.6096,1.524 -1.6764,2.5908 -1.0668,1.0668 -2.54,1.651 -1.4478,0.5588 -3.1496,0.5588 -1.7018,0 -3.1496,-0.5334 -1.4478,-0.5588 -2.4892,-1.6002 -1.0414,-1.0668 -1.651,-2.5908 -0.5842,-1.5494 -0.5842,-3.5306 0,-1.9304 0.6096,-3.4544 0.6096,-1.5494 1.6764,-2.6162 1.0668,-1.0922 2.5146,-1.651 1.4732,-0.5842 3.175,-0.5842 z m -4.2926,8.3058 q 0,1.4224 0.3302,2.4892 0.3556,1.0414 0.9398,1.7526 0.5842,0.6858 1.3462,1.0414 0.7874,0.3302 1.6764,0.3302 0.8636,0 1.6256,-0.3302 0.7874,-0.3556 1.3462,-1.0414 0.5588,-0.7112 0.889,-1.7526 0.3302,-1.0668 0.3302,-2.4892 0,-1.4732 -0.3556,-2.54 -0.3302,-1.0668 -0.9144,-1.7526 -0.5842,-0.7112 -1.3716,-1.0414 -0.762,-0.3302 -1.651,-0.3302 -0.889,0 -1.651,0.3556 -0.762,0.3556 -1.3208,1.0668 -0.5588,0.6858 -0.889,1.7526 -0.3302,1.0668 -0.3302,2.4892 z"
       id="path4793"
       style="font-weight:bold;font-size:25.4px;font-family:'Mukta Mahee';-inkscape-font-specification:'Mukta Mahee, Bold';text-align:center;text-anchor:middle;fill:#003262;fill-opacity:1;stroke-width:0.264583" />
    <path
       id="path4795"
       style="font-weight:bold;font-size:25.4px;font-family:'Mukta Mahee';-inkscape-font-specification:'Mukta Mahee, Bold';text-align:center;text-anchor:middle;fill:#003262;fill-opacity:1;stroke-width:0.264583"
       d="m 93.328156,120.78746 v 3.64887 c 0.06965,0.15756 0.135684,0.31829 0.197921,0.48266 l 0.0062,0.0114 c -0.0013,-0.003 -0.005,-0.005 -0.0062,-0.008 0.458955,1.16797 0.680062,2.47052 0.680062,3.89278 0,1.39373 -0.220357,2.67092 -0.681612,3.82406 -0.06194,0.15484 -0.127773,0.30665 -0.196371,0.45579 v 3.69434 h 9.931194 v -2.74298 h -6.451303 v -13.25914 z" />
    <path
       id="path4797"
       style="font-weight:bold;font-size:25.4px;font-family:'Mukta Mahee';-inkscape-font-specification:'Mukta Mahee, Bold';text-align:center;text-anchor:middle;fill:#003262;fill-opacity:1;stroke-width:0.264583"
       d="m 103.09863,120.78746 v 12.2592 h 1.16065 v 3.74292 h 8.77053 v -2.74298 h -6.45129 v -13.25914 z" />
    <path
       id="path4799"
       style="font-weight:bold;font-size:25.4px;font-family:'Mukta Mahee';-inkscape-font-specification:'Mukta Mahee, Bold';text-align:center;text-anchor:middle;fill:#003262;stroke-width:0.264583;fill-opacity:1"
       d="M 112.86908 120.78746 L 112.86908 133.04666 L 114.02922 133.04666 L 114.02922 136.78958 L 123.3594 136.78958 L 123.3594 134.72356 C 123.20601 134.52214 123.06201 134.31297 122.92635 134.09724 L 116.34897 134.09724 L 116.34897 129.80448 L 121.53522 129.80448 C 121.50643 129.46466 121.49181 129.11825 121.49181 128.76423 C 121.49181 128.20458 121.52851 127.66211 121.60136 127.13746 L 116.34897 127.13746 L 116.34897 123.4798 L 122.91446 123.4798 C 123.03076 123.29593 123.1539 123.11773 123.28291 122.94495 L 123.28291 120.78746 L 112.86908 120.78746 z " />
    <path
       d="m 131.1274,134.37658 q 1.1684,0 1.9812,-0.2032 0.8128,-0.2032 1.397,-0.5588 l 0.7112,2.54 q -0.6096,0.3556 -1.7272,0.635 -1.1176,0.2794 -2.7178,0.2794 -1.8034,0 -3.3274,-0.5588 -1.524,-0.5842 -2.6416,-1.651 -1.0922,-1.0922 -1.7018,-2.6162 -0.6096,-1.5494 -0.6096,-3.4798 0,-1.8796 0.5842,-3.4036 0.6096,-1.524 1.6764,-2.5908 1.0922,-1.0922 2.6416,-1.6764 1.5494,-0.5842 3.4544,-0.5842 1.6256,0 2.667,0.3048 1.0668,0.3048 1.7272,0.6604 l -0.7874,2.5654 q -0.6604,-0.3556 -1.4732,-0.5842 -0.7874,-0.254 -1.778,-0.254 -1.0414,0 -1.9558,0.3048 -0.9144,0.3048 -1.6002,0.9906 -0.6858,0.6604 -1.0922,1.7272 -0.381,1.0414 -0.381,2.54 0,1.4478 0.381,2.5146 0.381,1.0414 1.0414,1.7272 0.6858,0.6858 1.5748,1.0414 0.9144,0.3302 1.9558,0.3302 z"
       id="path4801"
       style="font-weight:bold;font-size:25.4px;font-family:'Mukta Mahee';-inkscape-font-specification:'Mukta Mahee, Bold';text-align:center;text-anchor:middle;fill:#003262;fill-opacity:1;stroke-width:0.264583" />
    <path
       id="path4803"
       style="font-weight:bold;font-size:25.4px;font-family:'Mukta Mahee';-inkscape-font-specification:'Mukta Mahee, Bold';text-align:center;text-anchor:middle;fill:#003262;fill-opacity:1;stroke-width:0.264583"
       d="M 136.29039 120.78746 L 136.55962 120.93215 L 135.76226 123.53096 L 139.03958 123.53096 L 139.03958 136.78958 L 142.51947 136.78958 L 142.51947 123.53096 L 145.90427 123.53096 L 145.90427 120.78746 L 136.29039 120.78746 z " />
    <path
       d="m 150.38479,120.78758 v 16.002 h -3.4798 v -16.002 z"
       id="path4805"
       style="font-weight:bold;font-size:25.4px;font-family:'Mukta Mahee';-inkscape-font-specification:'Mukta Mahee, Bold';text-align:center;text-anchor:middle;fill:#003262;fill-opacity:1;stroke-width:0.264583" />
    <path
       id="path4807"
       style="font-weight:bold;font-size:25.4px;font-family:'Mukta Mahee';-inkscape-font-specification:'Mukta Mahee, Bold';text-align:center;text-anchor:middle;fill:#003262;fill-opacity:1;stroke-width:0.264583"
       d="M 151.38456 120.78746 L 151.38456 124.06478 L 155.98944 136.78958 L 159.77423 136.78958 L 165.48912 120.78746 L 161.90795 120.78746 L 159.2156 128.94097 C 158.99547 129.6183 158.74963 130.38047 158.4787 131.22713 C 158.2247 132.05686 158.03022 132.79335 157.89476 133.43682 L 157.81827 133.43682 C 157.75054 133.11508 157.65775 132.75078 157.53922 132.34438 C 157.43762 131.93798 157.32754 131.53173 157.20901 131.12533 C 157.09048 130.71893 156.97201 130.32946 156.85347 129.95693 C 156.73494 129.56746 156.63325 129.23722 156.54858 128.96629 L 153.88156 120.78746 L 151.38456 120.78746 z " />
    <path
       id="path4809"
       style="font-weight:bold;font-size:25.4px;font-family:'Mukta Mahee';-inkscape-font-specification:'Mukta Mahee, Bold';text-align:center;text-anchor:middle;fill:#003262;fill-opacity:1;stroke-width:0.264583"
       d="M 166.65598 120.78746 L 165.25193 124.719 L 165.25193 136.78958 L 175.74224 136.78958 L 175.74224 134.09724 L 168.73182 134.09724 L 168.73182 129.80448 L 175.00586 129.80448 L 175.00586 127.13746 L 168.73182 127.13746 L 168.73182 123.4798 L 175.66628 123.4798 L 175.66628 120.78746 L 166.65598 120.78746 z " />
    <circle
       id="path4008"
       style="fill:#003262;stroke:#000000;stroke-width:0.264583;fill-opacity:1"
       cx="146.05003"
       cy="132.29167"
       r="0.035242245" />
    <circle
       id="path4010"
       style="fill:#003262;stroke:#000000;stroke-width:0.264583;fill-opacity:1"
       cx="146.05003"
       cy="132.29167"
       r="0.035242245" />
  </g>
</svg>
